<svg width="685" height="330" viewBox="0 0 685 330" fill="none" xmlns="http://www.w3.org/2000/svg">
<rect width="685" height="330" fill="black"/>
<path d="M147.064 156.264H164.588V162.816H147.064V156.264ZM147.688 171.24H167.5V178H139.316V141.6H166.824V148.36H147.688V171.24ZM191.623 178.624C188.815 178.624 186.197 178.173 183.771 177.272C181.379 176.336 179.299 175.019 177.531 173.32C175.763 171.621 174.376 169.628 173.371 167.34C172.4 165.052 171.915 162.539 171.915 159.8C171.915 157.061 172.4 154.548 173.371 152.26C174.376 149.972 175.763 147.979 177.531 146.28C179.333 144.581 181.431 143.281 183.823 142.38C186.215 141.444 188.832 140.976 191.675 140.976C194.829 140.976 197.672 141.531 200.203 142.64C202.768 143.715 204.917 145.309 206.651 147.424L201.243 152.416C199.995 150.995 198.608 149.937 197.083 149.244C195.557 148.516 193.893 148.152 192.091 148.152C190.392 148.152 188.832 148.429 187.411 148.984C185.989 149.539 184.759 150.336 183.719 151.376C182.679 152.416 181.864 153.647 181.275 155.068C180.72 156.489 180.443 158.067 180.443 159.8C180.443 161.533 180.72 163.111 181.275 164.532C181.864 165.953 182.679 167.184 183.719 168.224C184.759 169.264 185.989 170.061 187.411 170.616C188.832 171.171 190.392 171.448 192.091 171.448C193.893 171.448 195.557 171.101 197.083 170.408C198.608 169.68 199.995 168.588 201.243 167.132L206.651 172.124C204.917 174.239 202.768 175.851 200.203 176.96C197.672 178.069 194.812 178.624 191.623 178.624ZM237.299 141.6H245.723V178H237.299V141.6ZM220.763 178H212.339V141.6H220.763V178ZM237.923 163.076H220.139V155.952H237.923V163.076Z" fill="white"/>
<path d="M269.062 178V141.6H277.486V178H269.062ZM286.125 178V141.6H293.093L308.589 167.288H304.897L320.133 141.6H327.049L327.153 178H319.249L319.197 153.716H320.653L308.485 174.152H304.689L292.261 153.716H294.029V178H286.125ZM335.789 178V141.6H342.757L358.253 167.288H354.561L369.797 141.6H376.713L376.817 178H368.913L368.861 153.716H370.317L358.149 174.152H354.353L341.925 153.716H343.693V178H335.789ZM403.133 178.624C400.255 178.624 397.586 178.156 395.125 177.22C392.698 176.284 390.583 174.967 388.781 173.268C387.013 171.569 385.626 169.576 384.621 167.288C383.65 165 383.165 162.504 383.165 159.8C383.165 157.096 383.65 154.6 384.621 152.312C385.626 150.024 387.03 148.031 388.833 146.332C390.635 144.633 392.75 143.316 395.177 142.38C397.603 141.444 400.238 140.976 403.081 140.976C405.958 140.976 408.593 141.444 410.985 142.38C413.411 143.316 415.509 144.633 417.277 146.332C419.079 148.031 420.483 150.024 421.489 152.312C422.494 154.565 422.997 157.061 422.997 159.8C422.997 162.504 422.494 165.017 421.489 167.34C420.483 169.628 419.079 171.621 417.277 173.32C415.509 174.984 413.411 176.284 410.985 177.22C408.593 178.156 405.975 178.624 403.133 178.624ZM403.081 171.448C404.71 171.448 406.201 171.171 407.553 170.616C408.939 170.061 410.153 169.264 411.193 168.224C412.233 167.184 413.03 165.953 413.585 164.532C414.174 163.111 414.469 161.533 414.469 159.8C414.469 158.067 414.174 156.489 413.585 155.068C413.03 153.647 412.233 152.416 411.193 151.376C410.187 150.336 408.991 149.539 407.605 148.984C406.218 148.429 404.71 148.152 403.081 148.152C401.451 148.152 399.943 148.429 398.557 148.984C397.205 149.539 396.009 150.336 394.969 151.376C393.929 152.416 393.114 153.647 392.525 155.068C391.97 156.489 391.693 158.067 391.693 159.8C391.693 161.499 391.97 163.076 392.525 164.532C393.114 165.953 393.911 167.184 394.917 168.224C395.957 169.264 397.17 170.061 398.557 170.616C399.943 171.171 401.451 171.448 403.081 171.448ZM429.328 178V141.6H445.084C448.342 141.6 451.15 142.137 453.508 143.212C455.865 144.252 457.685 145.76 458.968 147.736C460.25 149.712 460.892 152.069 460.892 154.808C460.892 157.512 460.25 159.852 458.968 161.828C457.685 163.769 455.865 165.26 453.508 166.3C451.15 167.34 448.342 167.86 445.084 167.86H434.008L437.752 164.168V178H429.328ZM452.468 178L443.368 164.792H452.364L461.568 178H452.468ZM437.752 165.104L434.008 161.152H444.616C447.216 161.152 449.157 160.597 450.44 159.488C451.722 158.344 452.364 156.784 452.364 154.808C452.364 152.797 451.722 151.237 450.44 150.128C449.157 149.019 447.216 148.464 444.616 148.464H434.008L437.752 144.46V165.104ZM474.598 178V148.464H462.95V141.6H494.67V148.464H483.022V178H474.598ZM492.591 178L508.815 141.6H517.135L533.411 178H524.571L511.259 145.864H514.587L501.223 178H492.591ZM500.703 170.2L502.939 163.804H521.659L523.947 170.2H500.703ZM537.187 178V141.6H545.611V171.136H563.863V178H537.187ZM580.378 178.624C577.466 178.624 574.675 178.243 572.006 177.48C569.336 176.683 567.187 175.66 565.558 174.412L568.418 168.068C569.978 169.177 571.815 170.096 573.93 170.824C576.079 171.517 578.246 171.864 580.43 171.864C582.094 171.864 583.428 171.708 584.434 171.396C585.474 171.049 586.236 170.581 586.722 169.992C587.207 169.403 587.45 168.727 587.45 167.964C587.45 166.993 587.068 166.231 586.306 165.676C585.543 165.087 584.538 164.619 583.29 164.272C582.042 163.891 580.655 163.544 579.13 163.232C577.639 162.885 576.131 162.469 574.606 161.984C573.115 161.499 571.746 160.875 570.498 160.112C569.25 159.349 568.227 158.344 567.43 157.096C566.667 155.848 566.286 154.253 566.286 152.312C566.286 150.232 566.84 148.343 567.95 146.644C569.094 144.911 570.792 143.541 573.046 142.536C575.334 141.496 578.194 140.976 581.626 140.976C583.914 140.976 586.167 141.253 588.386 141.808C590.604 142.328 592.563 143.125 594.262 144.2L591.662 150.596C589.963 149.625 588.264 148.915 586.566 148.464C584.867 147.979 583.203 147.736 581.574 147.736C579.944 147.736 578.61 147.927 577.57 148.308C576.53 148.689 575.784 149.192 575.334 149.816C574.883 150.405 574.658 151.099 574.658 151.896C574.658 152.832 575.039 153.595 575.802 154.184C576.564 154.739 577.57 155.189 578.818 155.536C580.066 155.883 581.435 156.229 582.926 156.576C584.451 156.923 585.959 157.321 587.45 157.772C588.975 158.223 590.362 158.829 591.61 159.592C592.858 160.355 593.863 161.36 594.626 162.608C595.423 163.856 595.822 165.433 595.822 167.34C595.822 169.385 595.25 171.257 594.106 172.956C592.962 174.655 591.246 176.024 588.958 177.064C586.704 178.104 583.844 178.624 580.378 178.624Z" fill="#CEFF05"/>
<path d="M143.384 199V194.712L143.752 195.704L138.936 187.8H140.648L144.696 194.472H143.768L147.832 187.8H149.416L144.616 195.704L144.968 194.712V199H143.384ZM153.494 199.096C152.641 199.096 151.884 198.909 151.222 198.536C150.561 198.163 150.038 197.651 149.654 197C149.27 196.339 149.078 195.592 149.078 194.76C149.078 193.917 149.27 193.171 149.654 192.52C150.038 191.869 150.561 191.363 151.222 191C151.884 190.627 152.641 190.44 153.494 190.44C154.337 190.44 155.089 190.627 155.75 191C156.422 191.363 156.945 191.869 157.318 192.52C157.702 193.16 157.894 193.907 157.894 194.76C157.894 195.603 157.702 196.349 157.318 197C156.945 197.651 156.422 198.163 155.75 198.536C155.089 198.909 154.337 199.096 153.494 199.096ZM153.494 197.752C154.038 197.752 154.524 197.629 154.95 197.384C155.388 197.139 155.729 196.792 155.974 196.344C156.22 195.885 156.342 195.357 156.342 194.76C156.342 194.152 156.22 193.629 155.974 193.192C155.729 192.744 155.388 192.397 154.95 192.152C154.524 191.907 154.038 191.784 153.494 191.784C152.95 191.784 152.465 191.907 152.038 192.152C151.612 192.397 151.27 192.744 151.014 193.192C150.758 193.629 150.63 194.152 150.63 194.76C150.63 195.357 150.758 195.885 151.014 196.344C151.27 196.792 151.612 197.139 152.038 197.384C152.465 197.629 152.95 197.752 153.494 197.752ZM163.587 199.096C162.861 199.096 162.221 198.963 161.667 198.696C161.123 198.429 160.696 198.024 160.387 197.48C160.088 196.925 159.939 196.232 159.939 195.4V190.52H161.475V195.224C161.475 196.056 161.672 196.68 162.067 197.096C162.472 197.512 163.037 197.72 163.763 197.72C164.296 197.72 164.76 197.613 165.155 197.4C165.549 197.176 165.853 196.856 166.067 196.44C166.28 196.013 166.387 195.501 166.387 194.904V190.52H167.923V199H166.467V196.712L166.707 197.32C166.429 197.885 166.013 198.323 165.459 198.632C164.904 198.941 164.28 199.096 163.587 199.096ZM170.847 199V190.52H172.319V192.824L172.175 192.248C172.409 191.661 172.804 191.213 173.359 190.904C173.913 190.595 174.596 190.44 175.407 190.44V191.928C175.343 191.917 175.279 191.912 175.215 191.912C175.161 191.912 175.108 191.912 175.055 191.912C174.233 191.912 173.583 192.157 173.103 192.648C172.623 193.139 172.383 193.848 172.383 194.776V199H170.847ZM185.162 199L180.234 187.8H181.962L186.49 198.136H185.498L190.058 187.8H191.658L186.746 199H185.162ZM192.862 199V190.52H194.398V199H192.862ZM193.63 188.888C193.332 188.888 193.081 188.792 192.878 188.6C192.686 188.408 192.59 188.173 192.59 187.896C192.59 187.608 192.686 187.368 192.878 187.176C193.081 186.984 193.332 186.888 193.63 186.888C193.929 186.888 194.174 186.984 194.366 187.176C194.569 187.357 194.67 187.587 194.67 187.864C194.67 188.152 194.574 188.397 194.382 188.6C194.19 188.792 193.94 188.888 193.63 188.888ZM199.763 199.096C199.059 199.096 198.387 199 197.747 198.808C197.118 198.616 196.622 198.381 196.259 198.104L196.899 196.888C197.262 197.133 197.71 197.341 198.243 197.512C198.776 197.683 199.32 197.768 199.875 197.768C200.59 197.768 201.102 197.667 201.411 197.464C201.731 197.261 201.891 196.979 201.891 196.616C201.891 196.349 201.795 196.141 201.603 195.992C201.411 195.843 201.155 195.731 200.835 195.656C200.526 195.581 200.179 195.517 199.795 195.464C199.411 195.4 199.027 195.325 198.643 195.24C198.259 195.144 197.907 195.016 197.587 194.856C197.267 194.685 197.011 194.456 196.819 194.168C196.627 193.869 196.531 193.475 196.531 192.984C196.531 192.472 196.675 192.024 196.963 191.64C197.251 191.256 197.656 190.963 198.179 190.76C198.712 190.547 199.342 190.44 200.067 190.44C200.622 190.44 201.182 190.509 201.747 190.648C202.323 190.776 202.792 190.963 203.155 191.208L202.499 192.424C202.115 192.168 201.715 191.992 201.299 191.896C200.883 191.8 200.467 191.752 200.051 191.752C199.379 191.752 198.878 191.864 198.547 192.088C198.216 192.301 198.051 192.579 198.051 192.92C198.051 193.208 198.147 193.432 198.339 193.592C198.542 193.741 198.798 193.859 199.107 193.944C199.427 194.029 199.779 194.104 200.163 194.168C200.547 194.221 200.931 194.296 201.315 194.392C201.699 194.477 202.046 194.6 202.355 194.76C202.675 194.92 202.931 195.144 203.123 195.432C203.326 195.72 203.427 196.104 203.427 196.584C203.427 197.096 203.278 197.539 202.979 197.912C202.68 198.285 202.259 198.579 201.715 198.792C201.171 198.995 200.52 199.096 199.763 199.096ZM205.347 199V190.52H206.883V199H205.347ZM206.115 188.888C205.816 188.888 205.565 188.792 205.363 188.6C205.171 188.408 205.075 188.173 205.075 187.896C205.075 187.608 205.171 187.368 205.363 187.176C205.565 186.984 205.816 186.888 206.115 186.888C206.413 186.888 206.659 186.984 206.851 187.176C207.053 187.357 207.155 187.587 207.155 187.864C207.155 188.152 207.059 188.397 206.867 188.6C206.675 188.792 206.424 188.888 206.115 188.888ZM213.447 199.096C212.594 199.096 211.837 198.909 211.175 198.536C210.514 198.163 209.991 197.651 209.607 197C209.223 196.339 209.031 195.592 209.031 194.76C209.031 193.917 209.223 193.171 209.607 192.52C209.991 191.869 210.514 191.363 211.175 191C211.837 190.627 212.594 190.44 213.447 190.44C214.29 190.44 215.042 190.627 215.703 191C216.375 191.363 216.898 191.869 217.271 192.52C217.655 193.16 217.847 193.907 217.847 194.76C217.847 195.603 217.655 196.349 217.271 197C216.898 197.651 216.375 198.163 215.703 198.536C215.042 198.909 214.29 199.096 213.447 199.096ZM213.447 197.752C213.991 197.752 214.477 197.629 214.903 197.384C215.341 197.139 215.682 196.792 215.927 196.344C216.173 195.885 216.295 195.357 216.295 194.76C216.295 194.152 216.173 193.629 215.927 193.192C215.682 192.744 215.341 192.397 214.903 192.152C214.477 191.907 213.991 191.784 213.447 191.784C212.903 191.784 212.418 191.907 211.991 192.152C211.565 192.397 211.223 192.744 210.967 193.192C210.711 193.629 210.583 194.152 210.583 194.76C210.583 195.357 210.711 195.885 210.967 196.344C211.223 196.792 211.565 197.139 211.991 197.384C212.418 197.629 212.903 197.752 213.447 197.752ZM224.5 190.44C225.193 190.44 225.801 190.573 226.324 190.84C226.857 191.107 227.273 191.512 227.572 192.056C227.87 192.6 228.02 193.288 228.02 194.12V199H226.484V194.296C226.484 193.475 226.281 192.856 225.876 192.44C225.481 192.024 224.921 191.816 224.196 191.816C223.652 191.816 223.177 191.923 222.772 192.136C222.366 192.349 222.052 192.664 221.828 193.08C221.614 193.496 221.508 194.013 221.508 194.632V199H219.972V190.52H221.444V192.808L221.204 192.2C221.481 191.645 221.908 191.213 222.484 190.904C223.06 190.595 223.732 190.44 224.5 190.44ZM230.254 201.368L231.054 198.136L231.262 199.064C230.953 199.064 230.692 198.968 230.478 198.776C230.276 198.584 230.174 198.323 230.174 197.992C230.174 197.672 230.276 197.411 230.478 197.208C230.692 197.005 230.948 196.904 231.246 196.904C231.556 196.904 231.806 197.011 231.998 197.224C232.19 197.427 232.286 197.683 232.286 197.992C232.286 198.099 232.276 198.205 232.254 198.312C232.244 198.408 232.217 198.525 232.174 198.664C232.142 198.792 232.089 198.952 232.014 199.144L231.262 201.368H230.254ZM244.064 199.128C243.211 199.128 242.416 198.984 241.68 198.696C240.955 198.408 240.325 198.008 239.792 197.496C239.259 196.973 238.843 196.365 238.544 195.672C238.245 194.979 238.096 194.221 238.096 193.4C238.096 192.579 238.245 191.821 238.544 191.128C238.843 190.435 239.259 189.832 239.792 189.32C240.325 188.797 240.955 188.392 241.68 188.104C242.405 187.816 243.2 187.672 244.064 187.672C244.917 187.672 245.701 187.816 246.416 188.104C247.141 188.381 247.771 188.781 248.304 189.304C248.848 189.816 249.264 190.419 249.552 191.112C249.851 191.805 250 192.568 250 193.4C250 194.232 249.851 194.995 249.552 195.688C249.264 196.381 248.848 196.989 248.304 197.512C247.771 198.024 247.141 198.424 246.416 198.712C245.701 198.989 244.917 199.128 244.064 199.128ZM244.064 197.704C244.683 197.704 245.253 197.597 245.776 197.384C246.309 197.171 246.768 196.872 247.152 196.488C247.547 196.093 247.851 195.635 248.064 195.112C248.288 194.589 248.4 194.019 248.4 193.4C248.4 192.781 248.288 192.211 248.064 191.688C247.851 191.165 247.547 190.712 247.152 190.328C246.768 189.933 246.309 189.629 245.776 189.416C245.253 189.203 244.683 189.096 244.064 189.096C243.435 189.096 242.853 189.203 242.32 189.416C241.797 189.629 241.339 189.933 240.944 190.328C240.549 190.712 240.24 191.165 240.016 191.688C239.803 192.211 239.696 192.781 239.696 193.4C239.696 194.019 239.803 194.589 240.016 195.112C240.24 195.635 240.549 196.093 240.944 196.488C241.339 196.872 241.797 197.171 242.32 197.384C242.853 197.597 243.435 197.704 244.064 197.704ZM255.79 199.096C255.064 199.096 254.424 198.963 253.87 198.696C253.326 198.429 252.899 198.024 252.59 197.48C252.291 196.925 252.142 196.232 252.142 195.4V190.52H253.678V195.224C253.678 196.056 253.875 196.68 254.27 197.096C254.675 197.512 255.24 197.72 255.966 197.72C256.499 197.72 256.963 197.613 257.358 197.4C257.752 197.176 258.056 196.856 258.27 196.44C258.483 196.013 258.59 195.501 258.59 194.904V190.52H260.126V199H258.67V196.712L258.91 197.32C258.632 197.885 258.216 198.323 257.662 198.632C257.107 198.941 256.483 199.096 255.79 199.096ZM263.05 199V190.52H264.522V192.824L264.378 192.248C264.612 191.661 265.007 191.213 265.562 190.904C266.116 190.595 266.799 190.44 267.61 190.44V191.928C267.546 191.917 267.482 191.912 267.418 191.912C267.364 191.912 267.311 191.912 267.258 191.912C266.436 191.912 265.786 192.157 265.306 192.648C264.826 193.139 264.586 193.848 264.586 194.776V199H263.05ZM276.357 199V189.192H272.517V187.8H281.781V189.192H277.941V199H276.357ZM286.201 199.096C285.294 199.096 284.494 198.909 283.801 198.536C283.118 198.163 282.585 197.651 282.201 197C281.827 196.349 281.641 195.603 281.641 194.76C281.641 193.917 281.822 193.171 282.185 192.52C282.558 191.869 283.065 191.363 283.705 191C284.355 190.627 285.086 190.44 285.897 190.44C286.718 190.44 287.443 190.621 288.073 190.984C288.702 191.347 289.193 191.859 289.545 192.52C289.907 193.171 290.089 193.933 290.089 194.808C290.089 194.872 290.083 194.947 290.073 195.032C290.073 195.117 290.067 195.197 290.057 195.272H282.841V194.168H289.257L288.633 194.552C288.643 194.008 288.531 193.523 288.297 193.096C288.062 192.669 287.737 192.339 287.321 192.104C286.915 191.859 286.441 191.736 285.897 191.736C285.363 191.736 284.889 191.859 284.473 192.104C284.057 192.339 283.731 192.675 283.497 193.112C283.262 193.539 283.145 194.029 283.145 194.584V194.84C283.145 195.405 283.273 195.912 283.529 196.36C283.795 196.797 284.163 197.139 284.633 197.384C285.102 197.629 285.641 197.752 286.249 197.752C286.75 197.752 287.203 197.667 287.609 197.496C288.025 197.325 288.387 197.069 288.697 196.728L289.545 197.72C289.161 198.168 288.681 198.509 288.105 198.744C287.539 198.979 286.905 199.096 286.201 199.096ZM295.918 199.096C295.054 199.096 294.28 198.909 293.598 198.536C292.926 198.163 292.398 197.651 292.014 197C291.63 196.349 291.438 195.603 291.438 194.76C291.438 193.917 291.63 193.171 292.014 192.52C292.398 191.869 292.926 191.363 293.598 191C294.28 190.627 295.054 190.44 295.918 190.44C296.686 190.44 297.368 190.595 297.966 190.904C298.574 191.203 299.043 191.651 299.374 192.248L298.206 193C297.928 192.584 297.587 192.28 297.182 192.088C296.787 191.885 296.36 191.784 295.902 191.784C295.347 191.784 294.851 191.907 294.414 192.152C293.976 192.397 293.63 192.744 293.374 193.192C293.118 193.629 292.99 194.152 292.99 194.76C292.99 195.368 293.118 195.896 293.374 196.344C293.63 196.792 293.976 197.139 294.414 197.384C294.851 197.629 295.347 197.752 295.902 197.752C296.36 197.752 296.787 197.656 297.182 197.464C297.587 197.261 297.928 196.952 298.206 196.536L299.374 197.272C299.043 197.859 298.574 198.312 297.966 198.632C297.368 198.941 296.686 199.096 295.918 199.096ZM305.781 190.44C306.474 190.44 307.082 190.573 307.605 190.84C308.138 191.107 308.554 191.512 308.853 192.056C309.152 192.6 309.301 193.288 309.301 194.12V199H307.765V194.296C307.765 193.475 307.562 192.856 307.157 192.44C306.762 192.024 306.202 191.816 305.477 191.816C304.933 191.816 304.458 191.923 304.053 192.136C303.648 192.349 303.333 192.664 303.109 193.08C302.896 193.496 302.789 194.013 302.789 194.632V199H301.253V187.128H302.789V192.808L302.485 192.2C302.762 191.645 303.189 191.213 303.765 190.904C304.341 190.595 305.013 190.44 305.781 190.44ZM316.672 190.44C317.365 190.44 317.973 190.573 318.496 190.84C319.029 191.107 319.445 191.512 319.744 192.056C320.042 192.6 320.192 193.288 320.192 194.12V199H318.656V194.296C318.656 193.475 318.453 192.856 318.048 192.44C317.653 192.024 317.093 191.816 316.368 191.816C315.824 191.816 315.349 191.923 314.944 192.136C314.538 192.349 314.224 192.664 314 193.08C313.786 193.496 313.68 194.013 313.68 194.632V199H312.144V190.52H313.616V192.808L313.376 192.2C313.653 191.645 314.08 191.213 314.656 190.904C315.232 190.595 315.904 190.44 316.672 190.44ZM326.666 199.096C325.813 199.096 325.055 198.909 324.394 198.536C323.733 198.163 323.21 197.651 322.826 197C322.442 196.339 322.25 195.592 322.25 194.76C322.25 193.917 322.442 193.171 322.826 192.52C323.21 191.869 323.733 191.363 324.394 191C325.055 190.627 325.813 190.44 326.666 190.44C327.509 190.44 328.261 190.627 328.922 191C329.594 191.363 330.117 191.869 330.49 192.52C330.874 193.16 331.066 193.907 331.066 194.76C331.066 195.603 330.874 196.349 330.49 197C330.117 197.651 329.594 198.163 328.922 198.536C328.261 198.909 327.509 199.096 326.666 199.096ZM326.666 197.752C327.21 197.752 327.695 197.629 328.122 197.384C328.559 197.139 328.901 196.792 329.146 196.344C329.391 195.885 329.514 195.357 329.514 194.76C329.514 194.152 329.391 193.629 329.146 193.192C328.901 192.744 328.559 192.397 328.122 192.152C327.695 191.907 327.21 191.784 326.666 191.784C326.122 191.784 325.637 191.907 325.21 192.152C324.783 192.397 324.442 192.744 324.186 193.192C323.93 193.629 323.802 194.152 323.802 194.76C323.802 195.357 323.93 195.885 324.186 196.344C324.442 196.792 324.783 197.139 325.21 197.384C325.637 197.629 326.122 197.752 326.666 197.752ZM333.19 199V187.128H334.726V199H333.19ZM341.291 199.096C340.438 199.096 339.68 198.909 339.019 198.536C338.358 198.163 337.835 197.651 337.451 197C337.067 196.339 336.875 195.592 336.875 194.76C336.875 193.917 337.067 193.171 337.451 192.52C337.835 191.869 338.358 191.363 339.019 191C339.68 190.627 340.438 190.44 341.291 190.44C342.134 190.44 342.886 190.627 343.547 191C344.219 191.363 344.742 191.869 345.115 192.52C345.499 193.16 345.691 193.907 345.691 194.76C345.691 195.603 345.499 196.349 345.115 197C344.742 197.651 344.219 198.163 343.547 198.536C342.886 198.909 342.134 199.096 341.291 199.096ZM341.291 197.752C341.835 197.752 342.32 197.629 342.747 197.384C343.184 197.139 343.526 196.792 343.771 196.344C344.016 195.885 344.139 195.357 344.139 194.76C344.139 194.152 344.016 193.629 343.771 193.192C343.526 192.744 343.184 192.397 342.747 192.152C342.32 191.907 341.835 191.784 341.291 191.784C340.747 191.784 340.262 191.907 339.835 192.152C339.408 192.397 339.067 192.744 338.811 193.192C338.555 193.629 338.427 194.152 338.427 194.76C338.427 195.357 338.555 195.885 338.811 196.344C339.067 196.792 339.408 197.139 339.835 197.384C340.262 197.629 340.747 197.752 341.291 197.752ZM351.527 202.2C350.749 202.2 349.991 202.088 349.255 201.864C348.53 201.651 347.938 201.341 347.479 200.936L348.215 199.752C348.61 200.093 349.095 200.36 349.671 200.552C350.247 200.755 350.85 200.856 351.479 200.856C352.482 200.856 353.218 200.621 353.687 200.152C354.157 199.683 354.391 198.968 354.391 198.008V196.216L354.551 194.536L354.471 192.84V190.52H355.927V197.848C355.927 199.341 355.554 200.44 354.807 201.144C354.061 201.848 352.967 202.2 351.527 202.2ZM351.335 198.648C350.514 198.648 349.778 198.477 349.127 198.136C348.487 197.784 347.975 197.299 347.591 196.68C347.218 196.061 347.031 195.347 347.031 194.536C347.031 193.715 347.218 193 347.591 192.392C347.975 191.773 348.487 191.293 349.127 190.952C349.778 190.611 350.514 190.44 351.335 190.44C352.061 190.44 352.722 190.589 353.319 190.888C353.917 191.176 354.391 191.624 354.743 192.232C355.106 192.84 355.287 193.608 355.287 194.536C355.287 195.453 355.106 196.216 354.743 196.824C354.391 197.432 353.917 197.891 353.319 198.2C352.722 198.499 352.061 198.648 351.335 198.648ZM351.511 197.304C352.077 197.304 352.578 197.187 353.015 196.952C353.453 196.717 353.794 196.392 354.039 195.976C354.295 195.56 354.423 195.08 354.423 194.536C354.423 193.992 354.295 193.512 354.039 193.096C353.794 192.68 353.453 192.36 353.015 192.136C352.578 191.901 352.077 191.784 351.511 191.784C350.946 191.784 350.439 191.901 349.991 192.136C349.554 192.36 349.207 192.68 348.951 193.096C348.706 193.512 348.583 193.992 348.583 194.536C348.583 195.08 348.706 195.56 348.951 195.976C349.207 196.392 349.554 196.717 349.991 196.952C350.439 197.187 350.946 197.304 351.511 197.304ZM359.23 202.2C358.825 202.2 358.43 202.131 358.046 201.992C357.662 201.864 357.332 201.672 357.054 201.416L357.71 200.264C357.924 200.467 358.158 200.621 358.414 200.728C358.67 200.835 358.942 200.888 359.23 200.888C359.604 200.888 359.913 200.792 360.158 200.6C360.404 200.408 360.633 200.067 360.846 199.576L361.374 198.408L361.534 198.216L364.862 190.52H366.366L362.254 199.848C362.009 200.445 361.732 200.915 361.422 201.256C361.124 201.597 360.793 201.837 360.43 201.976C360.068 202.125 359.668 202.2 359.23 202.2ZM361.246 199.272L357.374 190.52H358.974L362.27 198.072L361.246 199.272Z" fill="white"/>
<path d="M87 133.732V115H129V202H111.259V133.732H87Z" fill="#CEFF05"/>
<path d="M133 133.139L161.909 133.411L152.17 115.179L133.151 115L133 133.139Z" fill="#CEFF05"/>
</svg>
